<svg width="275" height="70" viewBox="0 0 275 70" fill="none" xmlns="http://www.w3.org/2000/svg">
<g clip-path="url(#clip0)">
<path d="M47.6243 26.6872C47.7909 29.977 52.0096 35.0854 51.5192 41.6031C51.0803 47.4341 48.3319 54.5157 42.7058 58.0976C42.7282 58.4195 42.7406 58.718 42.7406 58.9888C42.7406 62.537 40.8749 64.6193 37.0862 65.7342C37.0897 65.7337 57.2102 61.3523 57.2152 39.8754C57.2196 17.9676 47.4056 22.3643 47.6243 26.6872Z" fill="#101E44"/>
<path d="M45.8132 55.4891C44.8958 56.479 43.8613 57.3612 42.7058 58.0971C42.7282 58.419 42.7406 58.718 42.7406 58.9888C42.7406 62.537 40.8749 64.6193 37.0862 65.7342C37.0862 65.7342 41.1358 64.8524 45.602 61.9419C45.9798 61.0944 46.1683 60.1155 46.1683 58.9888C46.1683 58.0867 46.0364 56.8826 45.8132 55.4891Z" fill="#3070EC"/>
<path d="M30.9746 12.4853C30.9746 12.4853 33.6376 5.66056 35.9198 6.13266C38.2337 6.61122 37.7844 14.3102 37.7844 14.3102C37.7844 14.3102 42.5645 21.6467 42.4098 25.8669C42.2551 30.0866 39.5419 32.9019 36.8576 33.4152C36.8576 33.4152 42.7406 52.9451 42.7406 58.9888C42.7406 65.0325 37.3317 66.8242 26.2178 66.8242C15.1045 66.8242 9.69556 65.0325 9.69556 58.9888C9.69556 52.9451 15.5785 33.4152 15.5785 33.4152C12.8942 32.9019 10.1811 30.0866 10.0263 25.8669C9.87111 21.6462 14.6517 14.3102 14.6517 14.3102C14.6517 14.3102 14.2024 6.61122 16.5158 6.13266C18.798 5.66056 21.4615 12.4853 21.4615 12.4853H30.9746Z" fill="#5281F9"/>
<path d="M26.2178 63.3969C16.1002 63.3969 10.7112 61.9112 9.82648 57.0845C9.74217 57.8095 9.69556 58.4532 9.69556 58.9888C9.69556 65.0329 15.1045 66.8247 26.2178 66.8247C37.3317 66.8247 42.7406 65.0324 42.7406 58.9888C42.7406 58.4532 42.6935 57.8095 42.6091 57.0845C41.7244 61.9112 36.3354 63.3969 26.2178 63.3969Z" fill="#101E44"/>
<path d="M16.5158 6.13266C14.2024 6.61122 14.6517 14.3102 14.6517 14.3102C14.6517 14.3102 9.87112 21.6467 10.0263 25.8669C10.1082 28.0985 10.9056 29.9364 12.0353 31.2495C25.4745 28.2443 24.2917 12.4853 24.2917 12.4853H21.4615C21.4615 12.4853 18.798 5.66056 16.5158 6.13266Z" fill="#3070EC"/>
<path d="M35.9198 6.13266C38.2337 6.61122 37.7844 14.3102 37.7844 14.3102C37.7844 14.3102 42.5645 21.6467 42.4098 25.8669C42.328 28.0985 41.5305 29.9364 40.4009 31.2495C26.9612 28.2443 28.1439 12.4853 28.1439 12.4853H30.9746C30.9746 12.4853 33.6376 5.66056 35.9198 6.13266Z" fill="#3070EC"/>
<path d="M16.1905 44.2642C16.1905 44.2642 17.1183 68.8931 20.6631 68.8931C24.2074 68.8931 24.2917 46.6897 24.2917 46.6897" fill="#5281F9"/>
<path d="M36.2456 44.2642C36.2456 44.2642 35.3173 68.8931 31.773 68.8931C28.2287 68.8931 28.1439 46.6897 28.1439 46.6897" fill="#5281F9"/>
<path d="M20.1017 22.2919C20.1017 20.9396 19.2488 19.8798 18.1598 19.8798C17.0712 19.8798 16.2183 20.9391 16.2183 22.2919C16.2183 23.6442 17.0712 24.7035 18.1598 24.7035C19.2488 24.7035 20.1017 23.6442 20.1017 22.2919Z" fill="black"/>
<path d="M36.1578 22.2919C36.1578 20.9396 35.3049 19.8798 34.2163 19.8798C33.1273 19.8798 32.2744 20.9391 32.2744 22.2919C32.2744 23.6442 33.1273 24.7035 34.2163 24.7035C35.3049 24.7035 36.1578 23.6442 36.1578 22.2919Z" fill="black"/>
<path d="M26.188 29.6577C26.7167 29.6577 27.1447 29.2297 27.1447 28.7011V26.5562C28.2619 26.2359 29.1273 25.3899 29.1273 24.4804C29.1273 24.1471 28.9989 23.3413 27.8102 23.0601C27.4204 22.9678 26.9354 22.9282 26.188 22.9282C25.4412 22.9282 24.9562 22.9678 24.5659 23.0601C23.3772 23.3413 23.2488 24.1471 23.2488 24.4804C23.2488 25.3899 24.1141 26.2359 25.2314 26.5562V28.7011C25.2314 29.2297 25.6599 29.6577 26.188 29.6577Z" fill="black"/>
<path d="M48.2957 31.5639C49.4755 34.3118 50.9439 37.7311 50.6568 41.5511C50.4311 44.5489 49.5866 47.6686 48.2784 50.3356C48.0458 50.8102 48.2417 51.383 48.7163 51.6156C48.8516 51.682 48.9955 51.7138 49.1368 51.7138C49.4904 51.7138 49.8301 51.5169 49.9967 51.1782C51.4091 48.2974 52.321 44.9297 52.5645 41.6944C52.8874 37.4068 51.3163 33.7484 50.0537 30.8087C49.3317 29.127 48.7078 27.6745 48.6528 26.587C48.5943 25.4295 49.5846 24.2507 50.7728 24.0643C51.4621 23.9557 53.8271 24.0325 55.3059 29.5679C55.4423 30.0782 55.9665 30.3812 56.4773 30.2453C56.9876 30.1089 57.2911 29.5843 57.1547 29.074C56.4827 26.5607 55.5192 24.6896 54.2898 23.5128C53.1686 22.4392 51.8127 21.9641 50.4753 22.1739C48.3081 22.5146 46.6329 24.5374 46.742 26.6837C46.8144 28.1144 47.5008 29.7132 48.2957 31.5639Z" fill="black"/>
<path d="M58.2908 39.8868C58.2913 37.3299 58.1584 34.9996 57.8956 32.9604C57.8286 32.4363 57.3481 32.0668 56.8249 32.1338C56.3007 32.2012 55.9308 32.6807 55.9977 33.2044C56.2501 35.1633 56.3776 37.4112 56.3771 39.8863C56.3761 44.6262 55.3605 48.8846 53.3585 52.5439C51.7582 55.4698 49.5221 58.0307 46.7128 60.1552C45.4834 61.085 44.2481 61.8497 43.0887 62.4741C43.529 61.4961 43.7463 60.3734 43.7463 59.0919C43.7463 58.9645 43.7433 58.8296 43.7383 58.6913C45.2672 57.6399 46.6483 56.3015 47.8489 54.7026C48.1663 54.2801 48.081 53.6806 47.6585 53.3632C47.236 53.0458 46.6364 53.1311 46.319 53.5536C45.4795 54.6714 44.5452 55.6444 43.53 56.4621C42.621 49.7421 39.1006 37.5382 38.0711 34.049C39.7487 33.4192 41.3589 32.0366 42.3666 30.0415L43.7289 30.7819C44.1876 31.0303 44.7777 30.8558 45.0262 30.3976C45.2786 29.9334 45.1065 29.3527 44.6424 29.1003L43.055 28.2379C43.2439 27.5426 43.3649 26.7963 43.4051 26.0023L44.9786 25.7335C45.4998 25.6448 45.8499 25.1508 45.7611 24.6296C45.6719 24.1089 45.178 23.7593 44.6567 23.8476L43.2692 24.0841C42.5635 20.1258 39.5409 15.1483 38.7797 13.9398C38.8045 13.2976 38.8392 11.7707 38.6979 10.1857C38.4162 7.02579 37.5761 5.34416 36.1301 5.04513C34.7103 4.75204 33.282 5.88718 31.7636 8.51749C31.1248 9.62337 30.6145 10.7421 30.3284 11.4087H22.0477C21.7615 10.7421 21.2513 9.62337 20.6125 8.51749C19.094 5.88718 17.6658 4.75155 16.246 5.04513C14.8 5.34416 13.9599 7.02579 13.6782 10.1857C13.5369 11.7702 13.5716 13.2976 13.5969 13.9398C12.8352 15.1483 9.81307 20.1258 9.1069 24.0841L7.71934 23.8476C7.19863 23.7588 6.70421 24.1089 6.61544 24.6296C6.52667 25.1508 6.87679 25.6448 7.39749 25.7335L8.97102 26.0023C9.01119 26.7963 9.13268 27.5426 9.32113 28.2379L7.73372 29.1003C7.26955 29.3527 7.09796 29.9334 7.34989 30.3976C7.59883 30.8558 8.18847 31.0308 8.64719 30.7819L10.0095 30.0415C11.0176 32.037 12.6279 33.4196 14.306 34.049C14.0333 34.9753 13.581 36.5305 13.0514 38.4234C12.909 38.9322 13.2061 39.4603 13.7149 39.6027C14.2237 39.7455 14.7518 39.4479 14.8942 38.9391C15.7531 35.8675 16.4072 33.6934 16.4136 33.6716C16.5753 33.136 16.2262 32.5612 15.6772 32.4561C13.3965 32.0202 11.0147 29.5853 10.8748 25.7762C10.8173 24.2051 11.5631 21.8129 13.032 18.8587C14.1756 16.5597 15.3564 14.7392 15.3683 14.7213C15.4798 14.5498 15.5334 14.3474 15.5215 14.1431C15.5205 14.1248 15.4149 12.2577 15.584 10.3558C15.824 7.66502 16.4231 6.96232 16.6338 6.91917C16.8431 6.87454 17.6668 7.24747 18.9463 9.45824C19.8568 11.0313 20.5114 12.6965 20.5178 12.7134C20.6606 13.0804 21.0147 13.3219 21.409 13.3219H30.9676C31.3619 13.3219 31.7155 13.0804 31.8588 12.7134C31.8652 12.6965 32.5119 11.0481 33.4204 9.4746C34.7053 7.24995 35.533 6.87553 35.7428 6.91917C35.9525 6.96232 36.5496 7.66155 36.7906 10.338C36.9617 12.2403 36.8561 14.1248 36.8546 14.1436C36.8432 14.3474 36.8967 14.5502 37.0083 14.7213C37.0202 14.7392 38.201 16.5597 39.3446 18.8592C40.8134 21.8129 41.5593 24.2051 41.5013 25.7762C41.3619 29.5853 38.9796 32.0202 36.6989 32.4561C36.1499 32.5612 35.8013 33.1365 35.9624 33.6721C36.0215 33.867 41.833 53.2278 41.833 59.0919C41.833 61.0538 41.2231 62.4483 39.9139 63.4808C38.8005 64.3585 37.1521 64.9918 34.9037 65.4039C35.4343 63.3092 35.9049 60.4056 36.3031 56.7746C36.9776 50.6248 37.2171 44.3951 37.2196 44.3332C37.2394 43.805 36.8278 43.3607 36.2997 43.3408C35.7755 43.3185 35.3277 43.7326 35.3073 44.2607C35.3054 44.3183 35.0832 50.0857 34.4663 55.9598C34.1058 59.3885 33.6842 62.1775 33.2131 64.2489C32.5317 67.2427 31.9302 67.9241 31.7581 68.064C31.4983 67.8716 30.2451 66.4766 29.5216 57.2819C29.105 51.9875 29.0802 46.7825 29.0802 46.7304C29.0782 46.2032 28.6502 45.7772 28.1236 45.7772C28.1226 45.7772 28.1211 45.7772 28.1196 45.7772C27.5915 45.7792 27.165 46.2092 27.167 46.7373C27.167 46.7939 27.1933 52.4175 27.6579 57.9682C27.9327 61.2556 28.3061 63.8849 28.7678 65.7838C28.7826 65.8453 28.7985 65.9072 28.8139 65.9702C27.9932 65.9955 27.1253 66.0084 26.188 66.0084C25.2508 66.0084 24.3834 65.9955 23.5622 65.9702C23.5781 65.9072 23.5934 65.8448 23.6083 65.7838C24.07 63.8849 24.4439 61.2556 24.7187 57.9682C25.1828 52.4175 25.2091 46.7939 25.2096 46.7373C25.2116 46.2092 24.7846 45.7792 24.2565 45.7772C24.255 45.7772 24.254 45.7772 24.2525 45.7772C23.7258 45.7772 23.2979 46.2032 23.2959 46.7304C23.2959 46.7825 23.2716 51.9781 22.8555 57.2725C22.132 66.4761 20.8778 67.8716 20.618 68.064C20.4985 67.9668 20.1726 67.6087 19.7571 66.4007C19.7407 66.3169 19.7139 66.2365 19.6772 66.1617C19.5156 65.6618 19.342 65.0359 19.163 64.2489C18.6919 62.1775 18.2703 59.3885 17.9098 55.9598C17.2929 50.0857 17.0707 44.3183 17.0687 44.2607C17.0484 43.7326 16.6041 43.318 16.0764 43.3408C15.5483 43.3607 15.1367 43.805 15.1565 44.3332C15.159 44.3951 15.399 50.6248 16.073 56.7746C16.4712 60.4061 16.9423 63.3092 17.4729 65.4039C15.2289 64.9928 13.583 64.362 12.4702 63.4872C11.1555 62.4537 10.5431 61.0572 10.5431 59.0919C10.5431 56.5058 11.7005 50.8068 13.8895 42.6114C14.0258 42.1006 13.7228 41.5764 13.212 41.44C12.7022 41.3041 12.1776 41.6066 12.0407 42.1174C9.77737 50.5906 8.62983 56.302 8.62983 59.0919C8.62983 61.6558 9.49916 63.5854 11.2874 64.9913C12.8118 66.1894 15.0444 66.9948 18.0992 67.4466C18.6413 68.854 19.4139 70 20.6066 70C21.7293 70 22.4578 69.0325 22.9527 67.8636C23.955 67.9023 25.0197 67.9216 26.188 67.9216C27.3564 67.9216 28.4211 67.9023 29.4234 67.8636C29.9183 69.0325 30.6468 70 31.7695 70C32.9627 70 33.7348 68.854 34.2773 67.4466C35.3912 67.2814 36.3944 67.0687 37.295 66.8078C37.7165 66.72 58.2859 62.0327 58.2908 39.8868Z" fill="black"/>
</g>
<path d="M85.3 18.9C81.9 18.9 79.1167 19.6333 76.95 21.1C74.7833 22.5667 73.7 24.55 73.7 27.05C73.7 29.5167 74.4167 31.4 75.85 32.7C77.3167 33.9667 79.5833 34.8667 82.65 35.4C84.05 35.6333 85.3333 35.9833 86.5 36.45C88.8333 37.3833 90 39.0167 90 41.35C90 43.0833 89.4167 44.5833 88.25 45.85C87.1167 47.05 85.9333 47.65 84.7 47.65C83.4333 47.65 82.1167 47.3833 80.75 46.85C80.65 46.8167 79.9667 46.5 78.7 45.9C77.4333 45.3 76.75 44.9833 76.65 44.95C76.55 44.8833 76.3667 44.85 76.1 44.85C75.8333 44.85 75.5667 44.9167 75.3 45.05C74.8333 45.3167 74.45 45.65 74.15 46.05C73.85 46.45 73.7 46.8167 73.7 47.15C73.7 48.05 74.55 48.95 76.25 49.85C78.8167 51.2833 81.4167 52 84.05 52C86.6833 52 88.7167 51.4333 90.15 50.3C92.7167 48.2333 94 45.0833 94 40.85C94 35.8167 91.3167 32.8167 85.95 31.85C83.6833 31.4167 81.8667 30.9 80.5 30.3C78.8 29.5333 77.95 28.3333 77.95 26.7C77.95 25.5 78.65 24.4833 80.05 23.65C81.4167 22.8167 82.7667 22.4 84.1 22.4C85.4 22.4 86.8667 22.7833 88.5 23.55C90.0667 24.2833 91.1 24.65 91.6 24.65C92.0667 24.65 92.4333 24.4667 92.7 24.1C92.9667 23.7333 93.1 23.3 93.1 22.8C93.1 21.6667 92.3333 20.7333 90.8 20C89.3333 19.2667 87.5 18.9 85.3 18.9ZM111.699 30.95C111.733 30.45 111.633 29.9833 111.399 29.55C111.166 29.1167 110.816 28.9 110.349 28.9C109.816 28.9 109.333 29.05 108.899 29.35C108.466 29.65 108.249 30.0333 108.249 30.5C108.249 34.1667 108.299 36.9333 108.399 38.8H106.849C106.749 38.8 106.116 38.8167 104.949 38.85C103.783 38.8833 102.216 38.7333 100.249 38.4L100.349 30.55C100.349 29.8167 99.9159 29.45 99.0492 29.45C98.5492 29.45 98.0992 29.6 97.6992 29.9C97.2992 30.1667 97.0826 30.5 97.0492 30.9L96.8492 39.25L96.7992 41.75C96.7992 44.2833 96.9826 47.2833 97.3492 50.75C97.3826 51.0833 97.5326 51.3833 97.7992 51.65C98.0659 51.8833 98.3992 52 98.7992 52C99.2659 52 99.6992 51.8667 100.099 51.6C100.499 51.3333 100.683 50.95 100.649 50.45C100.383 45.8167 100.249 43.2833 100.249 42.85V41.8C102.816 42.0667 104.833 42.2 106.299 42.2C107.033 42.2 107.733 42.1667 108.399 42.1C108.399 46.1667 108.333 48.9833 108.199 50.55C108.166 51.5167 108.716 52 109.849 52C111.049 52 111.649 51.0667 111.649 49.2L111.699 41.8V30.95ZM116.993 52C117.493 52 117.977 51.8333 118.443 51.5C118.91 51.1333 119.16 50.75 119.193 50.35C119.327 48.6167 119.393 43.2 119.393 34.1C119.393 32.0333 119.377 30.8167 119.343 30.45C119.31 29.9167 119.11 29.5167 118.743 29.25C118.41 29.0167 117.993 28.9 117.493 28.9C116.993 28.9 116.577 29.05 116.243 29.35C115.943 29.6167 115.793 29.9833 115.793 30.45L115.593 50.8C115.593 51.6 116.06 52 116.993 52ZM127.363 48.7C127.696 48.0333 128.246 47.2167 129.013 46.25C129.313 45.85 130.013 45.1 131.113 44L132.413 42.75L133.713 41.45L135.713 41.5C136.646 41.5 137.28 41.45 137.613 41.35C138.046 41.25 138.38 41.0667 138.613 40.8C138.846 40.5333 138.963 40.1333 138.963 39.6C138.963 38.6667 138.163 38.1833 136.563 38.15C138.596 35.55 140.013 33.7667 140.813 32.8C141.013 32.6 141.113 32.3333 141.113 32C141.113 31 140.646 30.3833 139.713 30.15C138.146 29.75 135.913 29.45 133.013 29.25C130.313 29.0167 128.213 28.9 126.713 28.9C125.446 28.9 124.613 29 124.213 29.2C123.613 29.7 123.313 30.25 123.313 30.85C123.313 31.6833 123.813 32.1 124.813 32.1C130.313 32.1 134.246 32.3667 136.613 32.9C135.78 34.0667 134.663 35.4667 133.263 37.1L132.613 37.9C130.68 37.7667 128.93 37.4167 127.363 36.85C127.163 36.7833 127.013 36.75 126.913 36.75C126.58 36.75 126.213 36.95 125.813 37.35C125.446 37.7167 125.263 38.1333 125.263 38.6C125.263 39.8667 126.713 40.6833 129.613 41.05C129.213 41.6167 128.596 42.3333 127.763 43.2C126.93 44.0667 126.413 44.6 126.213 44.8C125.646 45.4 125.096 46.2167 124.563 47.25C124.063 48.25 123.713 49.35 123.513 50.55C123.513 51.0833 123.613 51.4667 123.813 51.7C124.046 51.9 124.446 52 125.013 52L135.313 51.85C137.346 51.85 138.713 51.7333 139.413 51.5C140.08 51.2333 140.413 50.65 140.413 49.75C140.413 49.4167 140.263 49.1333 139.963 48.9C139.696 48.6667 138.83 48.55 137.363 48.55L133.413 48.7H127.363ZM155.823 29.15C152.656 29.15 150.173 30.0333 148.373 31.8C146.606 33.5667 145.723 36.15 145.723 39.55C145.723 42.9833 146.606 45.9167 148.373 48.35C150.139 50.75 152.423 51.95 155.223 51.95C157.823 51.95 159.939 50.75 161.573 48.35C163.239 45.9167 164.073 43.0667 164.073 39.8C164.073 36.5333 163.323 33.95 161.823 32.05C160.323 30.1167 158.323 29.15 155.823 29.15ZM155.573 48.3C153.606 48.3 152.039 47.3667 150.873 45.5C149.739 43.6667 149.173 41.65 149.173 39.45C149.173 37.25 149.706 35.5667 150.773 34.4C151.839 33.2 153.339 32.6 155.273 32.6C157.173 32.6 158.506 33.2167 159.273 34.45C160.073 35.65 160.473 37.6167 160.473 40.35C160.473 43.05 159.806 45.2167 158.473 46.85C157.673 47.8167 156.706 48.3 155.573 48.3ZM183.282 19.3C179.216 19.3 175.749 20.6667 172.882 23.4C170.016 26.1 168.582 30.2833 168.582 35.95C168.582 41.6167 170.099 46.0667 173.132 49.3C174.832 51.0667 176.882 51.95 179.282 51.95C180.449 51.95 181.832 51.7 183.432 51.2C185.166 50.6 187.399 49.5833 190.132 48.15C190.966 47.55 191.382 46.8 191.382 45.9C191.382 45 190.949 44.55 190.082 44.55C189.716 44.55 188.916 44.8333 187.682 45.4C184.182 47.0667 181.682 47.9 180.182 47.9C178.616 47.9 177.266 47.2833 176.132 46.05C173.932 43.7167 172.832 40.4333 172.832 36.2C172.832 32.0333 173.766 28.8667 175.632 26.7C177.466 24.5667 180.199 23.5 183.832 23.5C185.332 23.5 187.016 23.7333 188.882 24.2C189.649 24.2 190.282 24 190.782 23.6C191.282 23.1667 191.532 22.6667 191.532 22.1C191.532 21.5333 191.249 21.0333 190.682 20.6C187.916 19.7333 185.449 19.3 183.282 19.3ZM199.625 50.1C199.525 47.1 199.458 45.1167 199.425 44.15C200.792 45.0833 202.342 46.3 204.075 47.8C205.775 49.3 206.842 50.3333 207.275 50.9C207.875 51.6333 208.425 52 208.925 52C209.058 52 209.275 51.95 209.575 51.85C210.375 51.5833 210.775 51.0833 210.775 50.35C210.775 49.3167 209.958 48 208.325 46.4C206.625 44.8 204.758 43.35 202.725 42.05C202.992 42.0167 203.808 41.6167 205.175 40.85C206.542 40.0833 207.558 39.4667 208.225 39C208.992 38.4333 209.675 37.7 210.275 36.8C210.908 35.9 211.225 35.1 211.225 34.4C211.225 32.8667 210.408 31.5833 208.775 30.55C207.142 29.4833 205.258 28.95 203.125 28.95C200.958 28.95 199.242 29.25 197.975 29.85C196.708 30.45 196.075 31.2833 196.075 32.35C196.075 43.4167 196.142 49.6333 196.275 51C196.275 51.6667 196.642 52 197.375 52C197.942 52 198.458 51.8167 198.925 51.45C199.392 51.0833 199.625 50.65 199.625 50.15V50.1ZM199.425 39.7C199.425 36.1667 199.442 33.8667 199.475 32.8C200.675 32.5 201.908 32.35 203.175 32.35C204.375 32.35 205.442 32.6 206.375 33.1C207.342 33.5667 207.825 34.2167 207.825 35.05C207.725 35.9833 206.575 37 204.375 38.1C202.142 39.1667 200.492 39.7 199.425 39.7ZM219.395 50.65C219.561 49.1167 220.128 46.5833 221.095 43.05C222.895 43.5167 225.245 43.75 228.145 43.75L229.895 50.6C230.128 51.5333 230.795 52 231.895 52C232.328 52 232.695 51.8667 232.995 51.6C233.295 51.3333 233.445 51 233.445 50.6C232.545 46.7 231.778 43.6333 231.145 41.4C230.478 39.0333 229.595 36.65 228.495 34.25C227.395 31.8833 226.678 30.4333 226.345 29.9C225.945 29.2667 225.478 28.95 224.945 28.95C223.911 28.95 222.878 29.8667 221.845 31.7C220.711 33.6667 219.745 35.9667 218.945 38.6C217.011 44.6 216.045 48.6 216.045 50.6C216.045 51.4667 216.561 51.9 217.595 51.9C218.661 51.9 219.261 51.4833 219.395 50.65ZM224.795 33.55C225.761 35.5833 226.595 37.8667 227.295 40.4C225.295 40.4 223.561 40.2 222.095 39.8C222.795 37.4667 223.695 35.3833 224.795 33.55ZM248.316 41.45C248.816 41.45 249.216 41.2833 249.516 40.95C249.816 40.6167 249.966 40.2167 249.966 39.75C249.966 39.2833 249.816 38.8833 249.516 38.55C249.249 38.2167 248.949 38.05 248.616 38.05H242.116V32.65C243.983 32.75 245.499 32.8 246.666 32.8C248.366 32.8 249.383 32.7333 249.716 32.6C250.049 32.6 250.449 32.5 250.916 32.3C251.449 32.1667 251.716 31.6833 251.716 30.85C251.716 29.7833 250.749 29.25 248.816 29.25C244.949 29.25 242.466 29.2 241.366 29.1C240.333 29 239.583 28.95 239.116 28.95C238.716 28.95 238.316 29.2 237.916 29.7C237.616 30.1 237.466 30.4333 237.466 30.7C237.466 31.8667 237.899 32.5 238.766 32.6C238.799 33.1667 238.816 35.0333 238.816 38.2V46.1C238.816 48.4333 238.849 49.8 238.916 50.2C239.083 51.4667 239.683 52.1 240.716 52.1C241.749 52.1 242.266 51.3167 242.266 49.75C242.166 47.2833 242.116 44.5167 242.116 41.45H248.316ZM268.696 32.05C271.83 32.05 273.396 31.3667 273.396 30C273.396 29.3333 272.946 28.9 272.046 28.7L256.446 29.2C255.98 29.2333 255.546 29.45 255.146 29.85C254.78 30.25 254.596 30.65 254.596 31.05C254.596 31.9167 255.113 32.35 256.146 32.35C257.98 32.35 260.013 32.2667 262.246 32.1C262.046 34.4 261.946 37.3833 261.946 41.05C261.946 44.1167 261.996 47.3 262.096 50.6C262.096 51.5333 262.53 52 263.396 52C263.896 52 264.346 51.85 264.746 51.55C265.18 51.2167 265.396 50.8167 265.396 50.35C265.396 49.15 265.38 48.2167 265.346 47.55L265.296 43.8L265.396 31.95L268.696 32.05Z" fill="white"/>
<defs>
<clipPath id="clip0">
<rect width="65" height="65" fill="white" transform="translate(0 5)"/>
</clipPath>
</defs>
</svg>
